<svg fill="#0284C6" xmlns="http://www.w3.org/2000/svg" width="20" height="20" viewBox="0 0 20 20">
    <path fill-rule="nonzero" d="M19.916 12.185L16.553 6.58l3.019-.838a.585.585 0 1 0-.313-1.127l-3.752 1.042h-.001l-4.902 1.362V.585a.585.585 0 0 0-1.17 0v6.758L4.233 8.79.466 9.834a.585.585 0 0 0 .313 1.127l2.347-.652-3.004 5.008a.585.585 0 0 0-.084.301 4.348 4.348 0 0 0 4.343 4.343 4.348 4.348 0 0 0 4.343-4.343.585.585 0 0 0-.083-.3L5.279 9.711 14.4 7.178l-3.004 5.007a.585.585 0 0 0-.083.301 4.348 4.348 0 0 0 4.343 4.343c1.16 0 2.25-.452 3.07-1.272A4.314 4.314 0 0 0 20 12.487a.584.584 0 0 0-.084-.302zM4.382 18.791a3.178 3.178 0 0 1-3.119-2.588h6.238a3.178 3.178 0 0 1-3.119 2.588zm2.726-3.758H1.657l2.725-4.543 2.726 4.543zm8.549-7.674l2.725 4.542h-5.45l2.725-4.542zm0 8.3a3.178 3.178 0 0 1-3.119-2.588h6.238a3.178 3.178 0 0 1-3.12 2.589z"/>
</svg>
