<svg version="1.1" id="Layer_1" width="12" height="12"
	 viewBox="0 0 8 8">
<path fill="#E81A1A" d="M4,8C2.9,8,1.9,7.6,1.2,6.8C0.4,6.1,0,5.1,0,4s0.4-2.1,1.2-2.8C1.9,0.4,2.9,0,4,0s2.1,0.4,2.8,1.2C7.6,1.9,8,2.9,8,4
	S7.6,6.1,6.8,6.8C6.1,7.6,5.1,8,4,8L4,8z M4,0.6C2.1,0.6,0.6,2.1,0.6,4S2.1,7.4,4,7.4S7.4,5.9,7.4,4S5.9,0.6,4,0.6z M5.6,5.5
	c0,0-0.6-0.9-1.6-0.9S2.4,5.5,2.4,5.5C2.3,5.7,2.4,5.9,2.5,6c0.1,0.1,0.3,0,0.4-0.1c0,0,0.4-0.6,1-0.6s1,0.6,1,0.6
	C5.1,6,5.3,6.1,5.5,6C5.6,5.9,5.7,5.7,5.6,5.5z M2.6,2.6C2.8,2.6,3,2.8,3,3S2.8,3.4,2.6,3.4S2.2,3.2,2.2,3S2.4,2.6,2.6,2.6z M5,3
	c0,0.2,0.2,0.4,0.4,0.4c0.2,0,0.4-0.2,0.4-0.4S5.6,2.6,5.4,2.6C5.1,2.6,5,2.8,5,3z"/>
</svg>
